<svg xmlns="http://www.w3.org/2000/svg" width="264.9" height="264.9" viewBox="0 0 264.9 264.9"><defs><style>.cls-1{fill:#5c3951;}.cls-2{fill:#eae7c6;}.cls-3{fill:#eae8c7;}.cls-4{fill:#eae7c7;}.cls-5{fill:#dad49a;}.cls-6{fill:#d9d39a;}.cls-7{fill:#b1c9a3;}.cls-8{fill:#543540;}.cls-9{fill:#e6a800;}.cls-10{fill:#cf4b2f;}.cls-11{fill:#a4b77d;}.cls-12{fill:#d39801;}.cls-13{fill:#be4524;}</style></defs><title>EMBERS</title><g id="Layer_2" data-name="Layer 2"><g id="Layer_1-2" data-name="Layer 1"><path class="cls-1" d="M159.2,155.1c5.8,5.7,11.5,11.4,17.3,16.9a4.3,4.3,0,0,0,2.8,1c6.5,1,11.6-.8,16.1-6s12.3-12.5,18.4-18.7c2.3-2.4,4.2-2.3,6.4-.1l41.2,41.3c4.7,4.9,4.6,11.2-.3,16l-55.7,55.8c-4.6,4.6-11,4.8-15.7.2q-21-20.7-41.8-41.7c-2.3-2.2-1.6-4.1.5-6.1L171,191.1c3.8-3.8,3.7-11.9-.1-15.7l-16-16.2c-8,7.9-15.8,15.5-23.3,23.4-4.2,4.3-8.9,6.1-14.9,5.2s-10.5-1-15.8-1.3-9.3-1-12.6-5.1l-8.9,9.2a34.8,34.8,0,0,1,6.8,29.6A34.2,34.2,0,0,1,78.1,236c-2.3,2.6-4.1,2.6-6.7.1L51.8,216.3c-1.3,1.8-2.2,3.7-3.7,4.7s-3.5,1.2-4.6.6-1.3-3.4.3-4.9,2.6-2.4,4.9-4.4c-3.1-2.8-5.9-5-8.5-7.5s-7.1-7.1-10.7-10.6-3.4-5.1.2-8.2a35,35,0,0,1,42.1-2.2l2.4,1.6,8.5-9.3c-6-5.2-3.7-13.5-5.1-20.9a14.2,14.2,0,0,0-.2-2.9c-2.5-9.9,1.7-16.9,8.9-23.2s12.9-12.5,19.6-19.1L88.1,92.5c-2.3-2.2-11.3-1.8-13.7.6L51.2,116.3c-2.9,2.9-4,2.9-6.8,0L3.9,75.9c-5.2-5.3-5.2-11.7,0-16.9L59.1,3.8c5-4.9,11.4-5.1,16.3-.2C89.2,17.2,102.9,31,116.7,44.7c2.3,2.4,2,4.2-.2,6.4-7.6,7.4-15.1,14.9-22.4,22.5a11.7,11.7,0,0,0-2.3,5.2c-1.2,6,1,10.6,5.8,14.6s8,8,12.6,12.7c1.4-1.7,2.5-3.2,3.9-4.6,6.5-6.6,13.5-12.9,19.7-19.9s15.7-9.8,24.9.5l6.4-7.7c2-2.3,4.1-2.3,6.2-.1l7.5,7.9,7.7-8.3c1.5-1.6,3.3-2.8,5.3-.8s.7,3.8-.9,5.3l-8.3,7.8,8,7.5c2.1,1.9,2.1,3.9,0,5.8l-7.2,6.7c2.1,2.8,4,4.8,5.3,7.2,2.5,5,1.3,10.6-3.1,15.1l-23.7,23.7Zm-63,14.2-8.4-8.5c-3.8,3.8-4,7-.8,10.5a33.9,33.9,0,0,0,3.4,3.1c1.2,1.3,2.3,2.7,3.6,3.9,3.4,2.9,7.2,2.3,9.9-1.7Zm74.9-74.9,7.6,7.6c2-2,3.7-3.7,5.6-5.8l-8.1-7.7c-2.6-2.7-5.3-5.3-7.9-7.8l-5.4,4.9C165.8,88.7,168.5,91.5,171.1,94.4ZM138,86.7,129.7,95c-.5.5-1.2.8-1.7,1.3-11.3,11.4-22.7,22.7-34.1,34.1a13.6,13.6,0,0,1-1.1,1.4l10,10.8,30.4,29.6,23.3-23.4,13.2-13.7,8-7.7a50.8,50.8,0,0,0,4.1-3.9c2.4-2.8,2.6-6.7.2-9.1-8.6-8.7-17.3-17.3-26-25.9-1.7-1.7-3.3-3.6-5.2-5.3s-6.4-2.9-9.5-.2A38,38,0,0,0,138,86.7ZM98.5,147.6,87.6,137.2c-5.8,4.2-6.2,8.2-1.1,13.3l4.6,4.5,23.3,23.5c5,5,9.5,4.4,13.1-1.2ZM22.7,49.3,7.9,63.9c-2.3,2.2-2.3,4.7-.1,7s3.7,3.6,5.6,5.5L47.7,110c5.9-5.9,11.8-11.9,17.2-17.2L32.2,59.1c0-.2-.1-.4-.1-.6l5.3-3h.5L70.6,87.4,88.8,69.3l-27-26,5.6-2.8h.5L93.1,64.6l18-17.9L98.2,34.8l3.1-1.5c-4-3.7-7.8-7-11.3-10.5C83.7,16.5,77.5,10,71.3,3.7c-.6-.6-1.8-1.4-2.4-1.2-2.8,1.1-6.1,1.9-8.2,3.9-6.3,5.9-12,12.4-18,18.6s-11,10.8-16.1,16.5C24.7,43.6,24,46.7,22.7,49.3ZM72.4,192.4C62.3,182,44.1,181,35.1,190.3l7.7,7.9L75,229.5C83.9,219.4,82.8,203.1,72.4,192.4Zm174.9-7.9L217,154.9l-16.9,16.6,17.6,18.8,25.6,24.5c4.2-4.2,9-8.9,13.6-13.7,2.3-2.4,2.2-5-.1-7.3S250.5,187.5,247.3,184.5Zm-59.6,20.7c11,10.7,21.9,21.4,32.8,31.9l16.8-16.7-26.5-27.5-16.1-15.4-17.1,16.8Zm-24.5,20.9,30.6,30.8c2.4,2.4,5,2.3,7.3,0,4.9-4.7,9.7-9.6,14-13.8l-33.2-34.2-9.6-9-17.5,17.3Z"/><path class="cls-2" d="M169.7,135.1l-13.2,13.7-23.3,23.4-30.4-29.6a2.4,2.4,0,0,1,.6-.9q17.1-17.2,34.4-34.4a13.8,13.8,0,0,1,2.4-1.4Zm-14.4-.7a14.8,14.8,0,0,0-2.9,1.7c-1.2,1-2.3,2.2-3.4,3.3-4.3,4.3-8.7,8.5-12.8,13-.9,1-.5,3.2-.7,4.8,1.5,0,3.6.8,4.4,0,6-5.6,11.8-11.5,17.5-17.5.6-.6.6-2.3.3-3.2S156.2,135.1,155.3,134.4Z"/><path class="cls-3" d="M32.2,59.1,64.9,92.8c-5.4,5.3-11.3,11.3-17.2,17.2L13.4,76.4a17.2,17.2,0,0,1,2.8-3.7C21.4,68.1,26.8,63.6,32.2,59.1Z"/><path class="cls-4" d="M181.9,208.9l33.2,34.2c-4.3,4.2-9.1,9.1-14,13.8-2.3,2.3-4.9,2.4-7.3,0l-30.6-30.8a35.8,35.8,0,0,1,2.6-2.9Z"/><path class="cls-3" d="M61.8,43.3l27,26L70.6,87.4,37.9,55.5a30.6,30.6,0,0,1,2.9-2.1L61.1,43.2Z"/><path class="cls-4" d="M210.8,192.9l26.5,27.5-16.8,16.7c-10.9-10.5-21.8-21.2-32.8-31.9a22.3,22.3,0,0,1,3.3-2Z"/><path class="cls-5" d="M217.7,190.3l-17.6-18.8L217,154.9l30.3,29.6a77.1,77.1,0,0,0-9.5,1.2C231.1,187.1,224.4,188.7,217.7,190.3Z"/><path class="cls-6" d="M67.9,40.5h-.5L49.5,22.2,64,7.8c2.2-2.2,4.8-2,7,.1L97.6,34.7c-5.5.8-11.1,1.5-16.5,2.6S72.3,39.4,67.9,40.5Z"/><path class="cls-7" d="M72.4,192.4c10.4,10.7,11.5,27,2.6,37.1L42.8,198.2C51.8,191.9,61.4,188.8,72.4,192.4Z"/><path class="cls-6" d="M140.2,105.9a13.8,13.8,0,0,0-2.4,1.4q-17.3,17.1-34.4,34.4a2.4,2.4,0,0,0-.6.9l-10-10.8a13.6,13.6,0,0,0,1.1-1.4c11.4-11.4,22.8-22.7,34.1-34.1.5-.5,1.2-.8,1.7-1.3l10.4,10.3C140.1,105.5,140.2,105.7,140.2,105.9Z"/><path class="cls-3" d="M67.9,40.5c4.4-1.1,8.7-2.4,13.2-3.2s11-1.8,16.5-2.6h.6l12.9,11.9-18,17.9Z"/><path class="cls-3" d="M217.7,190.3c6.7-1.6,13.4-3.2,20.1-4.6a77.1,77.1,0,0,1,9.5-1.2c3.2,3,6.4,6.1,9.5,9.3s2.4,4.9.1,7.3c-4.6,4.8-9.4,9.5-13.6,13.7Z"/><path class="cls-8" d="M98.2,34.8h-.6L71,7.9c-2.2-2.1-4.8-2.3-7-.1L49.5,22.2,67.4,40.5l-5.6,2.8h-.7c-5.4-5.4-10.8-10.7-16-16L26.7,46l10.7,9.5-5.3,3-9.4-9.2c1.3-2.6,2-5.7,3.9-7.8,5.1-5.7,10.8-11,16.1-16.5s11.7-12.7,18-18.6c2.1-2,5.4-2.8,8.2-3.9.6-.2,1.8.6,2.4,1.2C77.5,10,83.7,16.5,90,22.8c3.5,3.5,7.3,6.8,11.3,10.5Z"/><path class="cls-9" d="M140.2,105.9c0-.2-.1-.4-.1-.6l8-8.1,28.8,28.7a7.1,7.1,0,0,1,.8,1.5l-8,7.7Z"/><path class="cls-10" d="M177.7,127.4a7.1,7.1,0,0,0-.8-1.5L148.1,97.2v-.6l7.9-8.1c8.7,8.6,17.4,17.2,26,25.9,2.4,2.4,2.2,6.3-.2,9.1A50.8,50.8,0,0,1,177.7,127.4Z"/><path class="cls-5" d="M210.8,192.9,191,203.2a22.3,22.3,0,0,0-3.3,2l-10.1-10.9,17.1-16.8Z"/><path class="cls-6" d="M37.4,55.5,26.7,46,45.1,27.2c5.2,5.3,10.6,10.6,16,16L40.8,53.4a30.6,30.6,0,0,0-2.9,2.1Z"/><path class="cls-2" d="M98.5,147.6l29,29.7c-3.6,5.6-8.1,6.2-13.1,1.2L91.1,155Z"/><path class="cls-5" d="M181.9,208.9l-16.1,14.3a35.8,35.8,0,0,0-2.6,2.9l-8.4-8.9,17.5-17.3Z"/><path class="cls-6" d="M22.7,49.3l9.4,9.2c0,.2.1.4.1.6-5.4,4.5-10.8,9-16,13.6a17.2,17.2,0,0,0-2.8,3.7c-1.9-1.9-3.8-3.6-5.6-5.5s-2.2-4.8.1-7Z"/><path class="cls-11" d="M72.4,192.4c-11-3.6-20.6-.5-29.6,5.8l-7.7-7.9C44.1,181,62.3,182,72.4,192.4Z"/><path class="cls-12" d="M148.1,96.6v.6l-8,8.1L129.7,95l8.3-8.3Z"/><path class="cls-13" d="M148.1,96.6,138,86.7a38,38,0,0,1,3.3-3.7c3.1-2.7,6.5-2.6,9.5.2s3.5,3.6,5.2,5.3Z"/><path class="cls-6" d="M98.5,147.6,91.1,155l-4.6-4.5c-5.1-5.1-4.7-9.1,1.1-13.3Z"/><path class="cls-6" d="M171.1,94.4c-2.6-2.9-5.3-5.7-8.2-8.8l5.4-4.9c2.6,2.5,5.3,5.1,7.9,7.8Z"/><path class="cls-2" d="M171.1,94.4l5.1-5.9,8.1,7.7c-1.9,2.1-3.6,3.8-5.6,5.8Z"/><path class="cls-6" d="M90.4,174.4a33.9,33.9,0,0,1-3.4-3.1c-3.2-3.5-3-6.7.8-10.5l8.4,8.5Z"/><path class="cls-2" d="M90.4,174.4l5.8-5.1,7.7,7.3c-2.7,4-6.5,4.6-9.9,1.7C92.7,177.1,91.6,175.7,90.4,174.4Z"/><path class="cls-1" d="M155.3,134.4c.9.7,2.1,1.3,2.4,2.1s.3,2.6-.3,3.2c-5.7,6-11.5,11.9-17.5,17.5-.8.8-2.9,0-4.4,0,.2-1.6-.2-3.8.7-4.8,4.1-4.5,8.5-8.7,12.8-13,1.1-1.1,2.2-2.3,3.4-3.3A14.8,14.8,0,0,1,155.3,134.4Z"/></g></g></svg>