<svg xmlns="http://www.w3.org/2000/svg" width="670.4" height="666.7" viewBox="0 0 670.4 666.7"><defs><style>.cls-1{fill:#fff;}</style></defs><title>favicon</title><g id="Layer_2" data-name="Layer 2"><g id="Layer_1-2" data-name="Layer 1"><path class="cls-1" d="M0,602.2A57.3,57.3,0,0,1,.7,608c.2,16.4.4,32.7.4,49,.1,2.1-.7,4.1-1.1,6.2Z"/><path class="cls-1" d="M665.7,331.3c-.3,182.6-148.2,332.9-331.8,332.2S3.8,511.7,4.5,330A330.7,330.7,0,0,1,336.5,0C518.3.3,665.9,148.8,665.7,331.3ZM346.9,487a3.8,3.8,0,0,0,.1,1c12.8-1,25.7-1.7,38.5-3s26.3-1.8,38.7-5.2c28.5-7.9,47.9-26.7,58.9-54,5.7-14,6.4-29,7.6-43.8.9-11,1.6-22.1,2.2-33.2.5-7.6,1-15.3.9-22.9s-1-15.1-1.6-22.7c-1.4-17.7-2.1-35.4-4.3-52.9-4.7-37.3-35.4-68.6-72.6-74.6a296.4,296.4,0,0,0-34-3.3c-18.3-1.1-36.7-2.3-55-2.1s-35.7,2-53.6,3c-23.5,1.2-45.2,6.9-63.1,23.7-10.9,10.3-19.7,21.8-24.7,36s-6.2,29.4-6.9,44.5c-.3,6.1-.7,12.2-1.1,18.3-.8,12.1-2.1,24.2-2.1,36.2s1.5,21.4,2.3,32.1,1.6,23.5,2.3,35.2c2.5,39.7,32.1,74.5,69.2,81.5,19,3.6,38.6,4.7,58.1,6C320,487.7,333.5,487,346.9,487ZM28.8,328.9c1.5,12.5,2.2,25.1,4.5,37.4,4.6,25.7,14,49.1,34.2,66.9,11.3,10.1,24.6,15.1,39.4,12.6,21.4-3.5,34.9-17.3,42.8-36.7,5-12,4.5-25,5.4-37.6.7-9.8,1.3-19.5,1.8-29.3.4-8.1,1.2-16.2.8-24.3-.7-14.2-2.7-28.3-3.3-42.5-.8-21.3-6.9-39.8-24.5-53.5-12.7-9.9-26.8-13.4-42.3-8.8-18.5,5.5-30.4,19.2-39.4,35.3C34.2,273.3,29.9,300.6,28.8,328.9ZM510.4,327c1.3,20.9,2.4,40.3,3.8,59.6a102.1,102.1,0,0,0,3.3,19c3.8,13.6,12.4,24.2,23.7,32.2,13.9,9.8,29.4,11.5,45,4.9s26.3-19,34.3-33.4c12.7-22.9,17.6-48.1,18.2-74a223.2,223.2,0,0,0-1.7-32.7c-3.7-29.2-12.2-56.3-34.7-77.2-11.6-10.6-24.9-15.9-40.5-13.9-20.7,2.6-41.7,23.4-45.1,44.3-1.3,7.7-1.9,15.4-2.6,23.2C512.8,295.5,511.6,312,510.4,327ZM333.5,152.5l16.6-1.2c15.3-1.1,30.7-2.1,46-3.3,13.3-.9,25.1-5.2,35.5-13.8,18.7-15.5,25.2-37.5,13.3-59.5-9.4-17.4-24.1-29.4-42-36.9-40.7-17-82.5-17.7-124.5-5-23.1,7-41.7,20.6-53.9,41.9-6.4,11.1-9,23.3-4.6,35.5,7.1,19.4,21.3,31.8,41.7,36,7.5,1.6,15.3,2.2,23,2.8C301.1,150.3,317.6,151.4,333.5,152.5Zm.1,479.9.2,1.2c14.7-2,29.7-3.2,44.3-6.2,25.9-5.3,47.7-17.7,63-39.9,14.2-20.7,11.9-43.4-5.9-61-12.7-12.7-28.7-16.9-45.9-18l-28.8-1.7c-12.3-.5-24.5-1.6-36.8-1.3-14.4.3-28.7,2-43.1,3-16,1-31.4,3.9-44.1,15-17.6,15.3-24.4,35.5-13.8,57.6,7.2,14.7,19.1,25.1,33,33.1C279.8,628.1,306.2,632.3,333.6,632.4Z"/><path class="cls-1" d="M663.6,666.7H6v-.5H663.9Z"/><path class="cls-1" d="M670.2,659.5V609.7h.2V660Z"/></g></g></svg>